<?xml version="1.0" encoding="UTF-8"?>
<svg id="Layer_1" xmlns="http://www.w3.org/2000/svg" version="1.1" viewBox="0 0 165.1 46">
  <!-- Generator: Adobe Illustrator 29.1.0, SVG Export Plug-In . SVG Version: 2.1.0 Build 142)  -->
  <defs>
    <style>
      .st0 {
        fill: #ff5900;
      }
    </style>
  </defs>
  <path class="st0" d="M27.6,32.2c-.5.2-.9.2-1.4.2-1.6,0-2.3-.8-3-2-.2-.4-.3-1.2-.3-1.2v-6.7h5.7l-.3-2.7c-.1-1.3-1.3-2.3-2.6-2.3h-2.8v-8.4s-1.7.1-2.3.2c-2.9.2-4.9,2.2-4.9,4.5v3.9l-5.1.2v1.9c0,1.5,1.2,2.7,2.7,2.7h2.4v7.9c0,2.8,1.6,5.4,4.1,6.8,2.5,1.4,5.5,1.3,7.9-.2v-4.7h-.1ZM63.8,36.3c-1.5-1.2-2.2-2.9-2.2-5s.7-3.9,2.1-5.1c1.4-1.2,3.5-1.8,6.1-1.8s2.1.1,3.1.4c.9.2,1.8.5,2.7.9v-.4c0-2.1-1.7-3.2-5-3.2s-3.8.2-5.7,1.1c0,0-.3-2-.3-2.7,0-1.5,1-2.6,2.9-3h0c1.4-.3,2.9-.4,4.3-.4,3.6,0,6.2.7,8.1,2.2,1.8,1.5,2.7,3.5,2.7,6.2v9c0,2.4-.8,3-2.8,3h-3.6l-.2-1.7c-.8.8-1.7,1.3-2.7,1.7-1.2.4-2.5.6-3.7.6-2.4,0-4.3-.6-5.8-1.8M74,33.1c.6-.3,1.2-.7,1.6-1.3v-1.7c-1.2-.8-2.5-1.2-3.9-1.2s-1.6.2-2.1.6-.8,1-.8,1.8.2,1.3.7,1.7c.5.4,1.2.6,2.1.6s1.6-.2,2.3-.5M114.8,36.3c-1.5-1.2-2.2-2.9-2.2-5s.7-3.9,2.1-5.1,3.5-1.8,6.1-1.8,2.1.1,3.1.4c.9.2,1.8.5,2.7.9v-.4c0-2.1-1.7-3.2-5-3.2s-3.8.2-5.7,1.1c0,0-.3-2-.3-2.7,0-1.5,1-2.6,2.9-3h0c1.4-.3,2.9-.4,4.3-.4,3.6,0,6.2.7,8.1,2.2,1.8,1.5,2.7,3.5,2.7,6.2v9c0,2.4-.8,3-2.8,3h-3.6l-.2-1.7c-.8.8-1.7,1.3-2.7,1.7-1.2.4-2.5.6-3.7.6-2.4,0-4.3-.6-5.8-1.8M125,33.1c.7-.3,1.2-.7,1.6-1.3v-1.7c-1.2-.8-2.5-1.2-3.9-1.2s-1.6.2-2.1.6-.8,1-.8,1.8.2,1.3.7,1.7c.5.4,1.2.6,2.1.6s1.6-.2,2.3-.5M30.8,36.3c-1.5-1.2-2.2-2.9-2.2-5s.7-3.9,2.1-5.1,3.5-1.8,6.1-1.8,2.1.1,3.1.4c.9.2,1.8.5,2.7.9v-.4c0-2.1-1.7-3.2-5-3.2s-3.8.2-5.7,1.1c0,0-.3-2-.3-2.7-.1-1.5,1-2.6,2.9-3h0c1.4-.3,2.9-.4,4.3-.4,3.6,0,6.2.7,8.1,2.2,1.8,1.5,2.7,3.5,2.7,6.2v9c0,2.4-.8,3-2.8,3h-3.6l-.2-1.7c-.8.8-1.7,1.3-2.7,1.7-1.2.4-2.5.6-3.7.6-2.4,0-4.3-.6-5.8-1.8M41,33.1c.6-.3,1.2-.8,1.6-1.3v-1.7c-1.2-.8-2.5-1.2-3.9-1.2s-1.6.2-2.1.6-.8,1-.8,1.8.2,1.3.7,1.7c.5.4,1.2.6,2.1.6s1.6-.2,2.3-.5M59.6,37.1V8.1s-1.7.1-2.2.2c-2.8.2-4.8,2.1-4.8,4.4v24.5h7ZM109.3,22.4c-.8-1.5-2.1-2.8-3.6-3.7s-3.3-1.3-5.4-1.3-2.5.2-3.7.6c-1.1.3-2.1.9-2.9,1.6v-11.5s-1.7.1-2.2.2c-2.9.2-4.9,2.2-4.9,4.4v24.8h6.7l.2-1.9c1.8,1.7,4.1,2.6,6.9,2.6s3.8-.4,5.4-1.3c1.5-.8,2.8-2.1,3.6-3.6.9-1.6,1.3-3.4,1.3-5.4s-.4-3.8-1.3-5.4M102,31.3c-.9.9-2.1,1.3-3.5,1.3s-2-.3-2.9-.8c-.8-.5-1.5-1.3-1.9-2.2v-3.4c.4-.9,1-1.7,1.9-2.2.9-.6,1.9-.8,2.9-.8,1.5,0,2.6.4,3.5,1.3s1.3,2,1.3,3.5-.4,2.7-1.3,3.5M150.6,32.2c-.5.2-.9.2-1.4.2-1.5,0-2.3-.8-3-2-.2-.4-.3-1.2-.3-1.2v-6.7h5.7l-.3-2.7c-.1-1.3-1.3-2.3-2.6-2.3h-2.8v-8.4s-1.7.1-2.3.2c-2.9.2-4.9,2.2-4.9,4.5v3.9l-5.1.2v1.9c0,1.5,1.2,2.7,2.7,2.7h2.4v7.9c0,2.8,1.6,5.4,4.1,6.8s5.5,1.3,7.9-.2v-4.7h0Z"/>
</svg>